<?xml version="1.0" encoding="utf-8"?>
<!-- Generator: Adobe Illustrator 26.1.0, SVG Export Plug-In . SVG Version: 6.00 Build 0)  -->
<svg version="1.1" id="Layer_1" xmlns="http://www.w3.org/2000/svg" xmlns:xlink="http://www.w3.org/1999/xlink" x="0px" y="0px"
	 viewBox="0 0 612 548" style="enable-background:new 0 0 612 548;" xml:space="preserve">
<style type="text/css">
	.st0{fill-rule:evenodd;clip-rule:evenodd;fill:#FFFFFF;}
</style>
<path class="st0" d="M580.5,280.7c-26.7-19.8-58.5-52.5-68.9-63.7c-10.3-11.2-30.1-18.9-43.9-18.9s-24.1,3.4-37,11.2
	c-12.9,7.7-35.3,28.4-53.4,46.5s-35.3,8.6-18.9-11.2c16.4-19.8,25-23.7,40.4-37c14.6-12.6,32.3-28.4,31-50.4
	c-1.3-21.9-16.6-42.4-16.6-42.4l-77.3-88c-15.9-15.9-30.1-15.5-30.1-15.5s-14.2-0.4-30.1,15.5l-77.3,88c0,0-15.3,20.5-16.6,42.4
	s16.4,37.8,31,50.4c15.5,13.3,24.1,17.2,40.5,37s-0.9,29.3-18.9,11.2c-18.1-18.1-40.5-38.7-53.4-46.5c-12.9-7.7-23.2-11.2-37-11.2
	s-33.6,7.7-43.9,18.9c-10.3,11.2-42.2,43.9-68.9,63.7c-26.7,19.8-24.1,37-24.1,37S8,337.5,28.6,353c20.7,15.5,59.4,49.1,77.5,67.1
	c18.1,18.1,40.5,17.2,40.5,17.2s20.7,0,36.1-12.9c15.5-12.9,45.6-50.8,70.6-67.1c25-16.4,27.5-8.6,27.5,5.2
	c0,13.8-5.2,89.5-10.3,119.6c0,0-5.2,19.4-5.2,30.1c0,20.7,15.5,21.5,15.5,21.5s9.1,0.2,11.6-4.1c2.6-4.5,13.3-4.2,13.3-4.2
	s10.7-0.3,13.3,4.2c2.5,4.3,11.6,4.1,11.6,4.1s15.5-0.9,15.5-21.5c0-10.8-5.2-30.1-5.2-30.1c-5.2-30.1-10.3-105.9-10.3-119.6
	c0-13.8,2.6-21.5,27.5-5.2c25,16.3,55.1,54.2,70.6,67.1s36.2,12.9,36.2,12.9s22.4,0.9,40.5-17.2c18.1-18.1,56.8-51.6,77.5-67.1
	s21.5-35.3,21.5-35.3S607.2,300.5,580.5,280.7z M187.1,355.6c-1,1.6-1.9,2.7-2.7,3.3c-0.8,0.6-1.7,0.9-2.8,0.9l-11.8-1.4h-37
	c-2.4,0-4.1-0.3-5.1-0.8c-1.4-0.8-2.2-2-2.2-3.7c0-1,0.2-1.7,0.7-2.2s1.6-1.2,3.5-2c2-1,3.3-2.3,3.9-4c0.5-1.4,0.7-5.7,0.7-12.7
	c0-3.2-0.1-7.9-0.3-14c-0.2-5.9-0.3-10.3-0.3-13.2c0-2.8-0.2-4.8-0.7-5.8c-0.4-1-1.4-1.8-2.8-2.3c-2.3-0.8-3.8-1.5-4.4-2
	c-1.1-0.9-1.7-1.9-1.7-3c0-2.6,2.1-4.5,6.4-5.9c3.6-1.2,8.5-1.7,14.6-1.7c6.8,0,12,0.4,15.4,1.1c4.4,1,6.6,2.9,6.6,5.7
	c0,1.2-0.3,2-0.9,2.6c-0.6,0.6-2,1.3-4.3,2.3c-1.3,0.6-2.2,1.6-2.5,3.1c-0.4,1.4-0.5,4.6-0.5,9.5v24.3c0,5.5,0.5,9,1.4,10.6
	c1.2,1.9,3.6,2.8,7.4,2.8c4,0,7.2-0.9,9.5-2.6c2.3-1.8,4-4.5,4.9-8.3c0.5-2.3,1.7-3.4,3.6-3.4c1.9,0,3.4,0.8,4.6,2.5
	c1.2,1.7,1.8,3.9,1.8,6.5C191.9,345.9,190.3,350.6,187.1,355.6z M319.4,158.3c0.3,1,0.6,1.8,1.1,2.4c0.5,0.5,1.4,1.1,2.7,1.8
	c2.3,1.1,3.5,2.6,3.5,4.6c0,2.8-2.2,4.8-6.5,5.8c-4.7,1.1-10.4,1.7-17.1,1.7c-11.5,0-17.3-2.2-17.3-6.6c0-1.6,1.1-3.1,3.4-4.4
	c1.7-1.1,2.8-2.5,3.1-4.3c0.7-4,1-12.6,1-25.6c0-9-0.5-14.8-1.4-17.4c-0.5-1.4-1.7-2.8-3.5-3.9c-1.4-1-2.4-1.7-2.9-2.4
	c-0.5-0.6-0.7-1.4-0.7-2.4c0-1.5,0.7-2.7,2.2-3.6c1.5-0.9,4.1-1.7,7.8-2.4c4.4-0.9,8.9-1.3,13.4-1.3c4,0,7.8,0.4,11.4,1.1
	c4.8,1,7.2,3,7.2,6.1c0,1-0.2,1.8-0.7,2.3s-1.7,1.3-3.6,2.2c-1.6,0.8-2.7,2.6-3.2,5.3c-0.5,2.8-0.8,8.1-0.8,16.1
	C318.4,146.8,318.7,155.1,319.4,158.3z M512.4,299.1c-1,1.3-2.4,2-4,2c-1.2,0-2.2-0.2-2.8-0.7c-0.6-0.5-2.3-2.2-4.9-5.2
	c-1.6-1.8-3.5-3-5.7-3.6s-6.4-0.9-12.5-1.1c-2.4,0-3.9,0.6-4.5,1.8c-0.4,0.9-0.8,2.7-1.2,5.4c-0.4,2.7-0.6,5.1-0.6,7.3
	c0,1.3,0.4,2.2,1.3,2.7c0.8,0.5,2.4,0.7,4.8,0.7c1.6,0,2.7-0.3,3.4-0.8c0.7-0.6,1.3-1.5,1.5-2.9c0.8-3.8,2.5-5.8,5-5.8
	c4.3,0,6.5,5.2,6.5,15.5c0,6.5-0.9,11.3-2.8,14.4c-1.1,1.9-2.7,2.8-4.7,2.8c-2.1,0-3.3-1.4-3.6-4.2c-0.2-1.8-0.4-3.1-0.7-3.8
	c-0.3-0.7-0.8-1.4-1.5-2.1c-1.2-1.1-2.9-1.6-5.1-1.6c-1.6,0-2.7,0.3-3.2,0.8c-0.6,0.6-0.8,1.6-0.7,3.2c0,0.3,0,1.9-0.1,4.9
	c0,6.1,0.6,9.8,1.9,11.2c0.4,0.5,0.9,0.9,1.3,1c0.4,0.2,1.6,0.4,3.5,0.7c0.9,0.1,1.7,0.6,2.3,1.4c0.6,0.8,1,1.7,1,2.8
	c0,2.7-1.6,4.5-4.8,5.2c-4.6,1.1-11,1.6-19.3,1.6c-7.3,0-12.3-0.4-15-1.3c-1.2-0.4-2.2-1.1-3-2.1s-1.2-2.2-1.2-3.4
	c0-1.5,0.6-2.8,1.7-3.8c0.3-0.2,1.2-0.7,2.9-1.3c2-0.8,3.2-2.6,3.5-5.4c0.6-4.3,1-14.2,1-29.7c0-6.7-0.2-11-0.7-13s-1.6-3.4-3.3-4.1
	c-1.8-0.8-2.9-1.5-3.5-2c-0.5-0.6-0.8-1.4-0.8-2.5c0-1.6,0.8-2.8,2.3-3.9c1.5-1,3.4-1.6,5.6-1.6c1.4,0,3.5,0.1,6.2,0.3
	c5.8,0.5,12.6,0.7,20.7,0.7c12.8,0,21.4-0.4,25.9-1.1c0.6-0.1,1.1-0.1,1.4-0.1c1.2,0,2.4,0.7,3.5,2.1c3.1,4,4.7,8.3,4.7,13.1
	C513.9,296.1,513.4,297.8,512.4,299.1z"/>
</svg>
